<svg xmlns="http://www.w3.org/2000/svg" height="400" width="400">
   <path fill="#ccc" d="M209.818 364.818l-13.837-13.849 3.343-3.293c1.838-1.81 3.343-3.529 3.343-3.818 0-.288-2.933-.525-6.518-.525-19.204 0-41.147-5.468-60.34-15.036C92.966 306.937 63.888 265.92 57.62 218c-1.47-11.247-1.02-31.76.937-42.667 7.036-39.205 29.56-73.49 62.443-95.05 24.243-15.895 50.226-23.638 79.2-23.603 16.426.02 30.649 2.301 45.474 7.294 19.58 6.596 38.554 17.945 52.837 31.605l2.845 2.72-14.126 14.138-14.126 14.137-4.385-4.023c-13.317-12.217-32.47-21.382-51.471-24.627-7.102-1.213-9.961-1.359-20.581-1.047-8.924.261-13.932.732-18.114 1.701-20.737 4.809-36.824 13.663-51.599 28.398-14.83 14.791-23.775 31.093-28.405 51.77C97.191 184.816 97 187.43 97 200c0 12.57.19 15.185 1.55 21.254 4.63 20.677 13.573 36.979 28.404 51.77 14.592 14.553 30.33 23.328 50.38 28.092 10.458 2.485 28.453 2.918 39.914.96 22.53-3.848 42.132-14.326 57.733-30.861 13.146-13.933 18.36-24.39 18.435-36.97.043-7.176-.925-9.05-5.573-10.786-5.079-1.896-11.812-2.776-24.843-3.247l-11.493-.416-2.809 5.4c-6.866 13.197-18.732 23.004-33.365 27.575-4.34 1.356-6.362 1.562-15.333 1.562-8.979 0-10.986-.204-15.31-1.562-6.17-1.938-11.811-4.734-17.023-8.437-7.498-5.328-8.276-3.405 7.936-19.604 8.672-8.664 14.407-13.92 14.69-13.462 1.08 1.749 5.981 3.532 9.707 3.532 8.373 0 14.8-6.423 14.8-14.792 0-8.382-6.42-14.808-14.792-14.808-3.734 0-8.633 1.781-9.715 3.532-.283.458-6.018-4.798-14.69-13.462-16.212-16.2-15.434-14.276-7.936-19.604 5.212-3.703 10.853-6.5 17.023-8.437 4.324-1.358 6.331-1.562 15.31-1.562 8.97 0 10.993.206 15.333 1.562 14.589 4.557 26.5 14.382 33.312 27.474l2.756 5.297 5.8.01c15.358.026 31.28 1.873 41.132 4.771 16.786 4.937 28.36 16.437 33.132 32.916 1.362 4.704 1.529 6.659 1.482 17.303-.048 10.734-.237 12.686-1.795 18.5-3.21 11.98-9.446 23.945-18.675 35.833-3.025 3.897-87.642 89.334-88.476 89.334-.19 0-6.573-6.232-14.183-13.85z"/>
   <g transform=" matrix(0.866, -0.5, 0.25, 0.433, 200, 200)">
		<path d="M 0,210 A 205,210 0 0,0 205,0 5,5 0 0,1 215,0 215,210 0 0,1 0,210Z" fill="#000">
    		<animateTransform attributeName="transform" type="rotate" from="360 0 0" to="0 0 0" dur="1s" repeatCount="indefinite" />
			<animate attributeName="fill" direction="alternate" values="#bb666a;6a66bb" dur="3s" repeatCount="indefinite" />
    	</path>
  	</g>
	
	<path fill="#ccc" d="M 200.19922,56.679688 C 171.22522,56.644688 145.243,64.388203 121,80.283203 88.117,101.8432 65.592641,136.12703 58.556641,175.33203 c -1.957,10.907 -2.4075,31.42097 -0.9375,42.66797 2.549764,19.49341 8.875232,37.84302 18.365234,54.19336 0.032,-0.0272 0.09485,-0.08 0.109375,-0.0918 15.114377,-9.54159 22.537103,-14.1417 33.64839,-21.33405 -5.08341,-8.90163 -8.74611,-18.59328 -11.191411,-29.51367 C 97.190833,215.18498 97,212.57 97,200 c 0,-12.57 0.190828,-15.18391 1.548828,-21.25391 4.630002,-20.677 13.574302,-36.97853 28.404292,-51.76953 14.775,-14.735 30.86261,-23.58944 51.59961,-28.398435 4.182,-0.969 9.19124,-1.440172 18.11524,-1.701172 10.62,-0.312 13.47808,-0.166125 20.58008,1.046875 19.001,3.245002 38.1537,12.409952 51.4707,24.626952 l 4.38477,4.02344 14.12695,-14.13672 14.125,-14.138672 -2.84375,-2.720703 c -14.283,-13.66 -33.25789,-25.007516 -52.83789,-31.603516 -14.825,-4.993 -29.04861,-7.274921 -45.47461,-7.294921 z M 200,145.66797 c -8.979,0 -10.98655,0.20255 -15.31055,1.56055 -6.17,1.937 -11.80948,4.7345 -17.02148,8.4375 -7.498,5.328 -8.27645,3.40351 7.93555,19.60351 8.672,8.664 14.40645,13.92089 14.68945,13.46289 1.082,-1.751 5.98084,-3.5332 9.71484,-3.5332 4.04863,0 7.63115,1.51348 10.26172,4.01367 2.11584,-1.55637 28.76812,-22.48192 31.90646,-24.98462 -6.65104,-7.21492 -17.03839,-13.93689 -26.84382,-16.9997 -4.34,-1.356 -6.36203,-1.56055 -15.33203,-1.56055 z" />
</svg>